# xmcd
#
# Track frame offsets:
#	150
#	17262
#	34427
#	48687
#	63852
#	77877
#	92642
#	104437
#	123562
#	138067
#	153690
#	166380
#	181615
#	195857
#	207832
#	221197
#	240412
#	255310
#	269155
#	282000
#
# Disc length: 3933 seconds
#
# Revision: 1
# Processed by: cddbd v1.5.1PL2 Copyright (c) Steve Scherf et al.
# Submitted via: dBpowerAMP V4.0
#
DISCID=150f5b14
DTITLE=Don Williams - Greatest Hits Collection
DYEAR=1995
DGENRE=Country
TTITLE0=Old Coyote Town
TTITLE1=Heartbreak in The Darkness
TTITLE2=I'll Never be in Love Again
TTITLE3=I Wouldn't be a Man
TTITLE4=Desperately
TTITLE5=We've Got a Good Fire Going
TTITLE6=We Got Love
TTITLE7=Senorita
TTITLE8=Another Place, Another Time
TTITLE9=Then It's Love
TTITLE10=Shot Full of Love
TTITLE11=Send Her Roses
TTITLE12=The Light in Your Eyes
TTITLE13=It's About Time
TTITLE14=Looking Back
TTITLE15=Till I Can't Take it Anymore
TTITLE16=Easy Touch
TTITLE17=Come From The Heart
TTITLE18=You Love me Through it All
TTITLE19=Running Out of Reasons to Run
EXTD=
EXTT0=
EXTT1=
EXTT2=
EXTT3=
EXTT4=
EXTT5=
EXTT6=
EXTT7=
EXTT8=
EXTT9=
EXTT10=
EXTT11=
EXTT12=
EXTT13=
EXTT14=
EXTT15=
EXTT16=
EXTT17=
EXTT18=
EXTT19=
PLAYORDER=
